<?xml version="1.0" encoding="UTF-8"?>
<svg xmlns="http://www.w3.org/2000/svg" viewBox="0 0 900 560" font-family="ui-monospace, monospace">
  <rect width="900" height="560" fill="#070b14"/>
  <g stroke="#1f2937" stroke-width="1" opacity="0.5">
    <line x1="160" y1="160" x2="450" y2="280"/>
    <line x1="160" y1="360" x2="450" y2="280"/>
    <line x1="740" y1="160" x2="450" y2="280"/>
    <line x1="740" y1="360" x2="450" y2="280"/>
    <line x1="450" y1="80"  x2="450" y2="280"/>
    <line x1="450" y1="480" x2="450" y2="280"/>
  </g>
  <g font-size="11" fill="#94a3b8" text-anchor="middle">
    <g><circle cx="450" cy="80"  r="32" fill="none" stroke="#a855f7" stroke-width="1.5" opacity="0.4"/><circle cx="450" cy="80"  r="8" fill="#a855f7"/><text x="450" y="132">brain</text></g>
    <g><circle cx="450" cy="280" r="32" fill="none" stroke="#38bdf8" stroke-width="1.5" opacity="0.4"/><circle cx="450" cy="280" r="8" fill="#38bdf8"/><text x="450" y="332">spinal cord</text></g>
    <g><circle cx="160" cy="160" r="32" fill="none" stroke="#22c55e" stroke-width="1.5" opacity="0.4"/><circle cx="160" cy="160" r="8" fill="#22c55e"/><text x="160" y="212">eyes</text></g>
    <g><circle cx="160" cy="360" r="32" fill="none" stroke="#22c55e" stroke-width="1.5" opacity="0.4"/><circle cx="160" cy="360" r="8" fill="#22c55e"/><text x="160" y="412">senses</text></g>
    <g><circle cx="740" cy="160" r="32" fill="none" stroke="#f59e0b" stroke-width="1.5" opacity="0.4"/><circle cx="740" cy="160" r="8" fill="#f59e0b"/><text x="740" y="212">autonomic NS</text></g>
    <g><circle cx="740" cy="360" r="32" fill="none" stroke="#f59e0b" stroke-width="1.5" opacity="0.4"/><circle cx="740" cy="360" r="8" fill="#f59e0b"/><text x="740" y="412">muscles + limbs</text></g>
    <g><circle cx="450" cy="480" r="32" fill="none" stroke="#ef4444" stroke-width="1.5" opacity="0.4"/><circle cx="450" cy="480" r="8" fill="#ef4444"/><text x="450" y="532">immune system</text></g>
  </g>
</svg>
